<svg width="40" height="40" viewBox="0 0 40 40" fill="none" xmlns="http://www.w3.org/2000/svg">
<rect opacity="0.2" width="40" height="40" rx="5" fill="#FF575F"/>
<path d="M10.5625 29.6563C10.5625 30.2779 10.8094 30.874 11.249 31.3135C11.6885 31.7531 12.2846 32 12.9062 32H26.9688C27.5904 32 28.1865 31.7531 28.626 31.3135C29.0656 30.874 29.3125 30.2779 29.3125 29.6563V13.25H10.5625V29.6563ZM23.8438 17.1563C23.8438 16.9491 23.9261 16.7503 24.0726 16.6038C24.2191 16.4573 24.4178 16.375 24.625 16.375C24.8322 16.375 25.0309 16.4573 25.1774 16.6038C25.3239 16.7503 25.4062 16.9491 25.4062 17.1563V28.0938C25.4062 28.301 25.3239 28.4997 25.1774 28.6462C25.0309 28.7927 24.8322 28.875 24.625 28.875C24.4178 28.875 24.2191 28.7927 24.0726 28.6462C23.9261 28.4997 23.8438 28.301 23.8438 28.0938V17.1563ZM19.1562 17.1563C19.1562 16.9491 19.2386 16.7503 19.3851 16.6038C19.5316 16.4573 19.7303 16.375 19.9375 16.375C20.1447 16.375 20.3434 16.4573 20.4899 16.6038C20.6364 16.7503 20.7188 16.9491 20.7188 17.1563V28.0938C20.7188 28.301 20.6364 28.4997 20.4899 28.6462C20.3434 28.7927 20.1447 28.875 19.9375 28.875C19.7303 28.875 19.5316 28.7927 19.3851 28.6462C19.2386 28.4997 19.1562 28.301 19.1562 28.0938V17.1563ZM14.4688 17.1563C14.4688 16.9491 14.5511 16.7503 14.6976 16.6038C14.8441 16.4573 15.0428 16.375 15.25 16.375C15.4572 16.375 15.6559 16.4573 15.8024 16.6038C15.9489 16.7503 16.0312 16.9491 16.0312 17.1563V28.0938C16.0312 28.301 15.9489 28.4997 15.8024 28.6462C15.6559 28.7927 15.4572 28.875 15.25 28.875C15.0428 28.875 14.8441 28.7927 14.6976 28.6462C14.5511 28.4997 14.4688 28.301 14.4688 28.0938V17.1563ZM30.0938 8.56251H24.2344L23.7754 7.64942C23.6782 7.45421 23.5284 7.29001 23.3429 7.17528C23.1575 7.06055 22.9437 6.99985 22.7256 7.00001H17.1445C16.9269 6.99917 16.7135 7.05965 16.5287 7.1745C16.3439 7.28936 16.1952 7.45395 16.0996 7.64942L15.6406 8.56251H9.78125C9.57405 8.56251 9.37534 8.64482 9.22882 8.79133C9.08231 8.93784 9 9.13656 9 9.34376V10.9063C9 11.1135 9.08231 11.3122 9.22882 11.4587C9.37534 11.6052 9.57405 11.6875 9.78125 11.6875H30.0938C30.301 11.6875 30.4997 11.6052 30.6462 11.4587C30.7927 11.3122 30.875 11.1135 30.875 10.9063V9.34376C30.875 9.13656 30.7927 8.93784 30.6462 8.79133C30.4997 8.64482 30.301 8.56251 30.0938 8.56251Z" fill="#FF575F"/>
</svg>
