<svg width="40" height="40" viewBox="0 0 40 40" fill="none" xmlns="http://www.w3.org/2000/svg">
<rect opacity="0.2" width="40" height="40" rx="5" fill="#2FB600" fill-opacity="0.6"/>
<path d="M32.3104 14.9348L30.0594 17.1858C29.8299 17.4153 29.4588 17.4153 29.2293 17.1858L23.8094 11.7659C23.5799 11.5364 23.5799 11.1653 23.8094 10.9358L26.0604 8.68481C26.9735 7.77173 28.4578 7.77173 29.3758 8.68481L32.3104 11.6194C33.2283 12.5325 33.2283 14.0168 32.3104 14.9348ZM21.8758 12.8694L9.05353 25.6916L8.01837 31.6243C7.87677 32.425 8.57501 33.1184 9.3758 32.9817L15.3084 31.9416L28.1307 19.1194C28.3602 18.8899 28.3602 18.5188 28.1307 18.2893L22.7108 12.8694C22.4764 12.6399 22.1053 12.6399 21.8758 12.8694ZM14.0584 24.593C13.7899 24.3245 13.7899 23.8948 14.0584 23.6262L21.5779 16.1067C21.8465 15.8381 22.2762 15.8381 22.5447 16.1067C22.8133 16.3752 22.8133 16.8049 22.5447 17.0735L15.0252 24.593C14.7567 24.8616 14.327 24.8616 14.0584 24.593ZM12.2957 28.6995H14.6395V30.4719L11.4901 31.0237L9.9715 29.5051L10.5233 26.3557H12.2957V28.6995Z" fill="#2FB600"/>
</svg>
