<svg width="102" height="46" viewBox="0 0 102 46" fill="none" xmlns="http://www.w3.org/2000/svg">
<path d="M32.2766 12.5389H20.1946L18.7517 11.4231L13.6926 2.54511C13.5717 2.33294 13.4502 2.11119 13.4349 1.86746C13.386 1.08438 14.2146 0.782672 14.7945 1.16498C14.9736 1.28304 15.0863 1.4742 15.1936 1.65992L20.4424 10.7469H31.5649C32.6335 10.7469 33.6215 11.3153 34.1585 12.2391L39.8168 21.9725H49.5947C49.8827 21.9725 50.1906 21.9746 50.4219 22.1463C51.0338 22.6006 50.8207 23.6582 50.028 23.7646H39.9859L34.0011 34.1111L39.5463 43.6462C39.8714 44.2899 39.3531 45.1784 38.528 44.9344C38.163 44.8265 37.9269 44.4913 37.7365 44.1618L32.6147 35.2945H21.9901C20.1965 35.2945 18.5404 34.3339 17.6499 32.777L12.4964 23.7667H2.05905C1.80632 23.7667 1.54148 23.7356 1.34925 23.5716C0.894257 23.1832 0.866646 22.5064 1.3681 22.1349C1.554 21.9972 1.79484 21.9725 2.0262 21.9725H12.6655L18.7453 11.4342L20.1946 12.5482L14.1532 23.0207L20.1946 33.5025H32.2766L38.3628 23.0207L32.2766 12.5389Z" fill="white"/>
<path d="M40.5607 17.1859C39.344 17.2979 39.4156 18.8986 40.5607 19.0015H51.3806C52.4424 18.9437 52.5112 17.2728 51.3806 17.1859H40.5607Z" fill="white"/>
<path d="M40.5607 28.5409C39.5388 28.5774 39.2685 26.8192 40.5607 26.74H51.3806C52.613 26.8546 52.411 28.5257 51.3806 28.5409H40.5607Z" fill="white"/>
<path d="M53.7136 27.2472V17.9489C53.7909 16.9469 54.9692 16.7434 55.81 17.9489L61.173 24.7113V17.9489C61.2423 16.7624 62.8318 16.8971 62.8767 17.9489V27.4163C62.8686 28.1076 61.5979 28.4909 60.848 27.4163L55.438 20.4848V27.2472C55.3632 28.2584 53.8661 28.4757 53.7136 27.2472Z" fill="white"/>
<path d="M67.1709 17.9489C66.9611 16.8449 65.497 16.8423 65.2436 17.9489V27.0925C65.2436 27.6448 65.6913 28.0925 66.2436 28.0925H71.4989C72.4325 28.1041 72.6551 26.3393 71.4989 26.2329H67.1709V17.9489Z" fill="white"/>
<path d="M81.0609 27.7352C80.7662 27.1461 80.5388 26.5648 80.1882 25.7505H79.7825L79.4105 23.9923L77.8552 20.273L77.0775 17.6108C77.3406 16.9915 78.3311 16.9584 78.7055 17.6108C79.0798 18.2631 82.6569 27.0782 82.6569 27.0782C83.0148 28.012 81.8794 28.6192 81.2427 28.0035C81.1646 27.928 81.1095 27.8324 81.0609 27.7352Z" fill="white"/>
<path d="M77.0775 17.6187L77.8214 20.273L76.2677 23.9585H79.3796L79.7495 25.7505H75.5074L74.643 27.7117C74.2766 28.6257 72.7728 28.4156 73.0877 27.2045L77.0775 17.6187Z" fill="white"/>
<path d="M91.6168 17.737C92.8603 18.4087 91.7204 20.0091 90.7714 19.4277C88.9889 18.7836 87.7923 18.9668 86.714 19.7658C84.7106 21.7224 85.2129 24.7586 86.883 25.852C87.8894 26.5009 89.0419 26.7262 90.6024 26.1901C91.6771 25.6607 92.564 26.5335 92.0884 27.3561C91.9329 27.625 91.642 27.7769 91.3504 27.8838C90.0959 28.3434 88.2895 28.6838 86.3759 27.7117C84.7007 26.921 83.5216 25.4909 83.5018 22.8089C83.3207 20.9321 84.3877 18.8432 86.5449 17.737C88.7394 16.79 90.2401 17.1187 91.6168 17.737Z" fill="white"/>
<path d="M95.7757 21.6931V19.0325H100.087C100.585 19.0325 100.988 18.6289 100.988 18.1312C100.988 17.6334 100.585 17.2299 100.087 17.2299H94.8146C94.2623 17.2299 93.8146 17.6776 93.8146 18.2299V27.2188C93.8146 27.7711 94.2623 28.2188 94.8146 28.2188H100.106C100.6 28.2188 101 27.8186 101 27.3249C101 26.8313 100.6 26.431 100.106 26.431H95.7757V23.4851H99.4161C99.9109 23.4851 100.312 23.084 100.312 22.5891C100.312 22.0942 99.9109 21.6931 99.4161 21.6931H95.7757Z" fill="white"/>
<path d="M32.2766 12.5389H20.1946L18.7517 11.4231L13.6926 2.54511C13.5717 2.33294 13.4502 2.11119 13.4349 1.86746C13.386 1.08438 14.2146 0.782672 14.7945 1.16498C14.9736 1.28304 15.0863 1.4742 15.1936 1.65992L20.4424 10.7469H31.5649C32.6335 10.7469 33.6215 11.3153 34.1585 12.2391L39.8168 21.9725H49.5947C49.8827 21.9725 50.1906 21.9746 50.4219 22.1463C51.0338 22.6006 50.8207 23.6582 50.028 23.7646H39.9859L34.0011 34.1111L39.5463 43.6462C39.8714 44.2899 39.3531 45.1784 38.528 44.9344C38.163 44.8265 37.9269 44.4913 37.7365 44.1618L32.6147 35.2945H21.9901C20.1965 35.2945 18.5404 34.3339 17.6499 32.777L12.4964 23.7667H2.05905C1.80632 23.7667 1.54148 23.7356 1.34925 23.5716C0.894257 23.1832 0.866646 22.5064 1.3681 22.1349C1.554 21.9972 1.79484 21.9725 2.0262 21.9725H12.6655L18.7453 11.4342L20.1946 12.5482L14.1532 23.0207L20.1946 33.5025H32.2766L38.3628 23.0207L32.2766 12.5389Z" stroke="white" stroke-width="0.1"/>
<path d="M40.5607 17.1859C39.344 17.2979 39.4156 18.8986 40.5607 19.0015H51.3806C52.4424 18.9437 52.5112 17.2728 51.3806 17.1859H40.5607Z" stroke="white" stroke-width="0.1"/>
<path d="M40.5607 28.5409C39.5388 28.5774 39.2685 26.8192 40.5607 26.74H51.3806C52.613 26.8546 52.411 28.5257 51.3806 28.5409H40.5607Z" stroke="white" stroke-width="0.1"/>
<path d="M53.7136 27.2472V17.9489C53.7909 16.9469 54.9692 16.7434 55.81 17.9489L61.173 24.7113V17.9489C61.2423 16.7624 62.8318 16.8971 62.8767 17.9489V27.4163C62.8686 28.1076 61.5979 28.4909 60.848 27.4163L55.438 20.4848V27.2472C55.3632 28.2584 53.8661 28.4757 53.7136 27.2472Z" stroke="white" stroke-width="0.1"/>
<path d="M67.1709 17.9489C66.9611 16.8449 65.497 16.8423 65.2436 17.9489V27.0925C65.2436 27.6448 65.6913 28.0925 66.2436 28.0925H71.4989C72.4325 28.1041 72.6551 26.3393 71.4989 26.2329H67.1709V17.9489Z" stroke="white" stroke-width="0.1"/>
<path d="M81.0609 27.7352C80.7662 27.1461 80.5388 26.5648 80.1882 25.7505H79.7825L79.4105 23.9923L77.8552 20.273L77.0775 17.6108C77.3406 16.9915 78.3311 16.9584 78.7055 17.6108C79.0798 18.2631 82.6569 27.0782 82.6569 27.0782C83.0148 28.012 81.8794 28.6192 81.2427 28.0035C81.1646 27.928 81.1095 27.8324 81.0609 27.7352Z" stroke="white" stroke-width="0.1"/>
<path d="M77.0775 17.6187L77.8214 20.273L76.2677 23.9585H79.3796L79.7495 25.7505H75.5074L74.643 27.7117C74.2766 28.6257 72.7728 28.4156 73.0877 27.2045L77.0775 17.6187Z" stroke="white" stroke-width="0.1"/>
<path d="M91.6168 17.737C92.8603 18.4087 91.7204 20.0091 90.7714 19.4277C88.9889 18.7836 87.7923 18.9668 86.714 19.7658C84.7106 21.7224 85.2129 24.7586 86.883 25.852C87.8894 26.5009 89.0419 26.7262 90.6024 26.1901C91.6771 25.6607 92.564 26.5335 92.0884 27.3561C91.9329 27.625 91.642 27.7769 91.3504 27.8838C90.0959 28.3434 88.2895 28.6838 86.3759 27.7117C84.7007 26.921 83.5216 25.4909 83.5018 22.8089C83.3207 20.9321 84.3877 18.8432 86.5449 17.737C88.7394 16.79 90.2401 17.1187 91.6168 17.737Z" stroke="white" stroke-width="0.1"/>
<path d="M95.7757 21.6931V19.0325H100.087C100.585 19.0325 100.988 18.6289 100.988 18.1312C100.988 17.6334 100.585 17.2299 100.087 17.2299H94.8146C94.2623 17.2299 93.8146 17.6776 93.8146 18.2299V27.2188C93.8146 27.7711 94.2623 28.2188 94.8146 28.2188H100.106C100.6 28.2188 101 27.8186 101 27.3249C101 26.8313 100.6 26.431 100.106 26.431H95.7757V23.4851H99.4161C99.9109 23.4851 100.312 23.084 100.312 22.5891C100.312 22.0942 99.9109 21.6931 99.4161 21.6931H95.7757Z" stroke="white" stroke-width="0.1"/>
</svg>
