<svg width="102" height="46" viewBox="0 0 299 132" fill="none" xmlns="http://www.w3.org/2000/svg">
<path d="M113.189 64.9804C113.372 65.2973 113.372 65.6878 113.189 66.0047L94.3537 98.6276C94.1708 98.9445 93.8326 99.1398 93.4667 99.1398L55.797 99.1398C55.431 99.1398 55.0929 98.9445 54.9099 98.6276L36.0751 66.0047C35.8921 65.6878 35.8921 65.2973 36.0751 64.9804L54.9099 32.3575C55.0929 32.0406 55.431 31.8453 55.797 31.8453L93.4667 31.8453C93.8326 31.8453 94.1708 32.0406 94.3538 32.3575L113.189 64.9804Z" stroke="#00BFC3" stroke-width="5.37744"/>
<line x1="39.3163" y1="2.99001" x2="55.1487" y2="30.514" stroke="#00BFC3" stroke-width="5.37744" stroke-linecap="round"/>
<line x1="2.68872" y1="65.0317" x2="34.4415" y2="65.0317" stroke="#00BFC3" stroke-width="5.37744" stroke-linecap="round"/>
<line x1="117.05" y1="79.1412" x2="148.802" y2="79.1412" stroke="#ED5660" stroke-width="5.37744" stroke-linecap="round"/>
<line x1="117.05" y1="50.9222" x2="148.802" y2="50.9222" stroke="#ED5660" stroke-width="5.37744" stroke-linecap="round"/>
<line x1="115.193" y1="65.0317" x2="144.545" y2="65.0317" stroke="#ED5660" stroke-width="5.37744" stroke-linecap="round"/>
<line x1="95.7542" y1="100.271" x2="111.587" y2="127.795" stroke="#00BFC3" stroke-width="5.37744" stroke-linecap="round"/>
<path d="M180.487 47.9998C181.23 47.9998 181.833 48.2473 182.297 48.7424C182.761 49.2375 182.993 49.8563 182.993 50.5989V77.6575C182.993 78.462 182.715 79.1428 182.158 79.6997C181.632 80.2257 180.967 80.4887 180.162 80.4887C179.76 80.4887 179.342 80.4268 178.909 80.3031C178.507 80.1484 178.197 79.9472 177.981 79.6997L159.741 56.5397L160.947 55.7971V77.8896C160.947 78.6322 160.7 79.2511 160.205 79.7461C159.741 80.2412 159.122 80.4887 158.348 80.4887C157.606 80.4887 157.002 80.2412 156.538 79.7461C156.074 79.2511 155.842 78.6322 155.842 77.8896V50.831C155.842 50.0265 156.105 49.3612 156.631 48.8352C157.188 48.2783 157.869 47.9998 158.673 47.9998C159.106 47.9998 159.555 48.0926 160.019 48.2783C160.483 48.433 160.823 48.6805 161.04 49.0209L178.723 71.5775L177.934 72.1344V50.5989C177.934 49.8563 178.166 49.2375 178.631 48.7424C179.095 48.2473 179.713 47.9998 180.487 47.9998ZM207.887 75.0584C208.691 75.0584 209.357 75.3214 209.883 75.8474C210.44 76.3425 210.718 76.9923 210.718 77.7968C210.718 78.5703 210.44 79.2201 209.883 79.7461C209.357 80.2412 208.691 80.4887 207.887 80.4887H192.803C191.998 80.4887 191.318 80.2257 190.761 79.6997C190.235 79.1428 189.972 78.462 189.972 77.6575V50.831C189.972 50.0265 190.25 49.3612 190.807 48.8352C191.364 48.2783 192.076 47.9998 192.942 47.9998C193.685 47.9998 194.334 48.2783 194.891 48.8352C195.479 49.3612 195.773 50.0265 195.773 50.831V75.8474L194.752 75.0584H207.887ZM227.961 55.2866L217.936 78.8643C217.72 79.4522 217.379 79.9163 216.915 80.2567C216.482 80.5661 216.002 80.7208 215.476 80.7208C214.641 80.7208 214.022 80.4887 213.62 80.0246C213.218 79.5605 213.017 78.988 213.017 78.3073C213.017 78.0288 213.063 77.7349 213.156 77.4255L224.713 49.6707C224.96 49.0518 225.331 48.5722 225.826 48.2319C226.353 47.8915 226.909 47.7523 227.497 47.8141C228.054 47.8141 228.565 47.9843 229.029 48.3247C229.524 48.6341 229.88 49.0828 230.096 49.6707L241.514 76.8685C241.669 77.2708 241.746 77.6421 241.746 77.9824C241.746 78.8179 241.468 79.4831 240.911 79.9782C240.385 80.4733 239.797 80.7208 239.147 80.7208C238.59 80.7208 238.079 80.5506 237.615 80.2102C237.182 79.8699 236.842 79.4058 236.594 78.8179L226.616 55.5651L227.961 55.2866ZM219.375 73.2019L221.928 67.8645H234.459L235.341 73.2019H219.375ZM268.192 49.5778C268.996 49.9801 269.46 50.6144 269.584 51.4808C269.739 52.3471 269.522 53.1361 268.934 53.8478C268.532 54.4048 268.006 54.7142 267.356 54.7761C266.737 54.8379 266.103 54.7142 265.453 54.4048C264.711 54.0644 263.922 53.8014 263.086 53.6157C262.282 53.4301 261.431 53.3373 260.533 53.3373C258.863 53.3373 257.362 53.6003 256.031 54.1263C254.732 54.6523 253.618 55.4104 252.69 56.4005C251.761 57.3597 251.05 58.5045 250.555 59.835C250.091 61.1655 249.859 62.6353 249.859 64.2443C249.859 66.1317 250.122 67.7716 250.648 69.164C251.204 70.5564 251.963 71.7167 252.922 72.645C253.881 73.5732 255.01 74.2694 256.31 74.7335C257.609 75.1667 259.017 75.3833 260.533 75.3833C261.369 75.3833 262.204 75.306 263.04 75.1513C263.875 74.9965 264.68 74.7181 265.453 74.3158C266.103 74.0064 266.737 73.8981 267.356 73.9909C268.006 74.0838 268.547 74.4087 268.981 74.9656C269.599 75.7392 269.816 76.5436 269.63 77.3791C269.476 78.1836 269.012 78.7715 268.238 79.1428C267.433 79.545 266.598 79.8854 265.732 80.1638C264.896 80.4114 264.045 80.597 263.179 80.7208C262.313 80.8755 261.431 80.9529 260.533 80.9529C258.306 80.9529 256.186 80.597 254.175 79.8854C252.195 79.1737 250.415 78.1217 248.837 76.7293C247.29 75.3369 246.068 73.6042 245.171 71.5311C244.274 69.427 243.825 66.9981 243.825 64.2443C243.825 61.8617 244.227 59.6649 245.032 57.6536C245.867 55.6424 247.027 53.9097 248.513 52.4554C250.029 50.9702 251.808 49.8254 253.85 49.0209C255.892 48.1854 258.12 47.7677 260.533 47.7677C261.895 47.7677 263.225 47.9224 264.525 48.2319C265.824 48.5413 267.047 48.9899 268.192 49.5778ZM277.379 47.9998H292.927C293.732 47.9998 294.397 48.2628 294.923 48.7888C295.48 49.2839 295.759 49.9337 295.759 50.7381C295.759 51.5117 295.48 52.146 294.923 52.6411C294.397 53.1052 293.732 53.3373 292.927 53.3373H279.932L280.35 52.5482V61.5987L279.978 61.2274H290.839C291.643 61.2274 292.309 61.4904 292.835 62.0164C293.391 62.5115 293.67 63.1613 293.67 63.9658C293.67 64.7393 293.391 65.3736 292.835 65.8687C292.309 66.3328 291.643 66.5649 290.839 66.5649H280.117L280.35 66.1936V75.569L279.978 75.1513H292.927C293.732 75.1513 294.397 75.4297 294.923 75.9867C295.48 76.5127 295.759 77.1315 295.759 77.8432C295.759 78.6167 295.48 79.2511 294.923 79.7461C294.397 80.2412 293.732 80.4887 292.927 80.4887H277.379C276.575 80.4887 275.894 80.2257 275.337 79.6997C274.811 79.1428 274.548 78.462 274.548 77.6575V50.831C274.548 50.0265 274.811 49.3612 275.337 48.8352C275.894 48.2783 276.575 47.9998 277.379 47.9998Z" fill="#00BFC3"/>
</svg>
