<svg width="40" height="40" viewBox="0 0 40 40" fill="none" xmlns="http://www.w3.org/2000/svg">
<rect opacity="0.2" width="40" height="40" rx="5" fill="#7AD8DB"/>
<path d="M13 31.5V7.5C13 7.22386 13.2239 7 13.5 7H16.9444C17.2206 7 17.4444 7.22386 17.4444 7.5V31.5C17.4444 31.7761 17.2206 32 16.9444 32H13.5C13.2239 32 13 31.7761 13 31.5Z" fill="#00BFC3"/>
<path d="M25.8333 7H22.3889C22.1127 7 21.8889 7.22386 21.8889 7.5V31.5C21.8889 31.7761 22.1127 32 22.3889 32H25.8333C26.1095 32 26.3333 31.7761 26.3333 31.5V7.5C26.3333 7.22386 26.1095 7 25.8333 7Z" fill="#00BFC3"/>
</svg>
