<svg width="140" height="179" viewBox="0 0 140 179" fill="none" xmlns="http://www.w3.org/2000/svg">
<path d="M105.676 13.9255L116.222 23.2615C121.613 27.2458 125.91 24.3552 127.472 22.5974C130.402 19.3161 130.09 14.2771 126.808 11.3474L116.261 2.01145C112.98 -0.918239 107.902 -0.605739 105.011 2.67551C102.082 5.95676 102.394 10.9958 105.676 13.9255V13.9255Z" fill="#B5B5B5"/>
<path d="M39.5941 98.8592L47.8754 90.6951C50.6097 92.6873 53.7738 93.742 57.016 93.742C60.9222 93.742 64.8285 92.2576 67.7972 89.3279L111.977 46.0858C114.828 43.2733 120.336 33.8201 111.43 24.9139L102.368 16.867C96.3129 11.5154 87.055 11.7498 81.3129 17.3748L37.1332 60.6561C34.2816 63.4686 32.6801 67.3748 32.7582 71.3201C32.8363 74.4842 34.0082 77.492 36.0004 79.992L28.3832 87.492C25.2582 90.5779 25.1801 95.6561 28.3051 98.7811C32.5629 103 37.7191 100.734 39.5941 98.8592V98.8592Z" fill="#B5B5B5"/>
<path d="M131.797 162.766H100.859C100.898 162.492 100.938 142.453 100.938 142.453C116.875 132.102 127.383 114.797 127.383 95.1875C127.383 80.6563 121.445 66.9453 111.406 56.5547L100.078 67.6875C107.266 75.1484 111.484 84.9141 111.484 95.1875C111.484 118.039 91.3281 136.594 66.5625 136.594C62.1484 136.594 58.5938 140.148 58.5938 144.562C58.5938 148.977 62.1484 152.531 66.5625 152.531C73.0078 152.531 79.2188 151.555 85.0391 149.797C85.0391 149.797 85.0781 162.414 85.1172 162.687H33.125V123.039H42.1094C46.5234 123.039 50.0781 119.484 50.0781 115.07C50.0781 110.656 46.5234 107.102 42.1094 107.102H8.20313C3.78906 107.102 0.234375 110.656 0.234375 115.07C0.234375 119.484 3.78906 123.039 8.20313 123.039H17.1875V162.766H11.1328C6.71875 162.766 3.16406 166.32 3.16406 170.734C3.16406 175.148 6.71875 178.703 11.1328 178.703H131.836C136.25 178.703 139.805 175.148 139.805 170.734C139.766 166.32 136.211 162.766 131.797 162.766V162.766Z" fill="#B5B5B5"/>
</svg>
